<?xml version="1.0" encoding="UTF-8" standalone="no"?>
<svg
   xmlns:dc="http://purl.org/dc/elements/1.1/"
   xmlns:cc="http://creativecommons.org/ns#"
   xmlns:rdf="http://www.w3.org/1999/02/22-rdf-syntax-ns#"
   xmlns:svg="http://www.w3.org/2000/svg"
   xmlns="http://www.w3.org/2000/svg"
   xmlns:sodipodi="http://sodipodi.sourceforge.net/DTD/sodipodi-0.dtd"
   xmlns:inkscape="http://www.inkscape.org/namespaces/inkscape"
   viewBox="0 0 297.40536 472.55598"
   height="472.556"
   width="297.40536"
   xml:space="preserve"
   id="svg2"
   version="1.1"
   inkscape:version="0.91 r13725"
   sodipodi:docname="Academic-Meta-Tool-Logo-Ai-file - Kopie.svg"><sodipodi:namedview
     pagecolor="#ffffff"
     bordercolor="#666666"
     borderopacity="1"
     objecttolerance="10"
     gridtolerance="10"
     guidetolerance="10"
     inkscape:pageopacity="0"
     inkscape:pageshadow="2"
     inkscape:window-width="1366"
     inkscape:window-height="705"
     id="namedview89"
     showgrid="false"
     inkscape:zoom="0.70799998"
     inkscape:cx="-16.044656"
     inkscape:cy="203.47409"
     inkscape:window-x="-8"
     inkscape:window-y="-8"
     inkscape:window-maximized="1"
     inkscape:current-layer="g10"
     fit-margin-top="0"
     fit-margin-left="0"
     fit-margin-right="0"
     fit-margin-bottom="0" /><metadata
     id="metadata8"><rdf:RDF><cc:Work
         rdf:about=""><dc:format>image/svg+xml</dc:format><dc:type
           rdf:resource="http://purl.org/dc/dcmitype/StillImage" /><dc:title></dc:title></cc:Work></rdf:RDF></metadata><defs
     id="defs6"><clipPath
       id="clipPath20"
       clipPathUnits="userSpaceOnUse"><path
         id="path18"
         d="m 0,2000 2000,0 L 2000,0 0,0 Z"
         inkscape:connector-curvature="0" /></clipPath></defs><g
     transform="matrix(1.3333333,0,0,-1.3333333,-1184.6302,2041.5494)"
     id="g10"><g
       id="g14"><g
         clip-path="url(#clipPath20)"
         id="g16"><g
           transform="translate(1083.5529,683.6345)"
           id="g22" /><g
           transform="translate(1048.6858,926.2529)"
           id="g26" /><g
           transform="translate(999.4194,903.4031)"
           id="g30" /><g
           transform="translate(1056.5017,797.2596)"
           id="g34" /><g
           transform="translate(642.0557,600.2227)"
           id="g38" /><g
           transform="translate(681.2667,621.9584)"
           id="g42" /><g
           transform="translate(734.5911,600.2227)"
           id="g46" /><g
           transform="translate(790.5058,605.8257)"
           id="g50" /><g
           transform="translate(835.1124,623.9809)"
           id="g54" /><g
           transform="translate(858.6599,623.9809)"
           id="g58" /><g
           transform="translate(953.475,621.9584)"
           id="g64" /><g
           transform="translate(1042.5863,587.7216)"
           id="g68" /><g
           transform="translate(1074.328,618.5342)"
           id="g72" /><g
           transform="translate(1125.8849,618.5342)"
           id="g76" /><g
           transform="translate(1163.6976,617.4963)"
           id="g80" /><g
           transform="translate(1235.1217,618.5342)"
           id="g84" /><g
           transform="translate(1263.2853,605.8768)"
           id="g88" /><g
           transform="translate(1314.2212,605.8768)"
           id="g92" /><g
           transform="translate(1385.2306,593.2725)"
           id="g96" /><g
           transform="translate(1083.5527,1216.2091)"
           id="g100"><path
             id="path102"
             style="fill:#000000;fill-opacity:1;fill-rule:nonzero;stroke:none"
             d="m 0,0 0,50.075 8.061,4.154 10.858,5.595 -1.594,3.094 -1.594,3.094 L 4.872,60.417 3.633,59.778 0,57.906 -6.962,54.319 -12.73,51.347 -45.505,34.458 c -0.85,-0.437 -1.734,-0.637 -2.618,-0.638 -2.083,0.004 -4.084,1.129 -5.101,3.106 l -0.001,0.002 c -0.436,0.85 -0.637,1.735 -0.638,2.617 0.005,2.084 1.129,4.085 3.108,5.102 l 38.025,19.594 5.768,2.972 3.594,1.852 c 1.123,0.401 2.245,0.844 3.368,1.297 1.214,0.49 2.424,1.014 3.633,1.569 5.967,2.734 11.844,6.282 17.38,10.832 C 21.012,66.691 21.012,39.998 21.012,39.998 21.011,26.562 15.576,14.429 6.773,5.62 4.696,3.545 2.42,1.674 0,0 m 3.721,-17.415 c 0.92,-0.882 1.486,-1.666 1.805,-2.299 0.319,-0.639 0.41,-1.112 0.413,-1.544 -0.003,-0.445 -0.103,-0.89 -0.384,-1.448 -0.479,-0.967 -1.615,-2.217 -3.376,-3.411 -2.625,-1.806 -6.538,-3.461 -10.907,-4.595 -4.37,-1.143 -9.204,-1.792 -13.716,-1.79 -0.973,0 -1.93,0.03 -2.863,0.09 -3.054,0.196 -5.448,0.682 -7.273,1.321 -2.746,0.973 -4.172,2.201 -5.042,3.47 -0.86,1.275 -1.234,2.764 -1.239,4.519 -0.024,2.457 0.847,5.291 1.839,7.521 l 9.417,0 c 7.593,10e-4 14.828,1.528 21.421,4.284 l -0.053,-0.12 c 4.886,-2.126 8.126,-4.228 9.958,-5.998 m -95.117,8.796 c -7.398,10e-4 -14.373,1.697 -20.643,4.647 l 0,74.468 c 0.002,14.519 5.875,27.632 15.388,37.15 0.178,0.178 0.366,0.345 0.546,0.52 -10e-4,-0.06 -0.012,-0.119 -0.012,-0.179 -10e-4,-1.926 0.45,-3.894 1.39,-5.715 L -59.321,33.56 c 2.218,-4.298 6.59,-6.776 11.112,-6.771 1.927,-0.001 3.894,0.45 5.714,1.389 l 35.533,18.31 0,-50.46 c -6.27,-2.95 -13.245,-4.646 -20.643,-4.647 z m 11.256,-14.483 c 0,-1.163 -0.174,-2.228 -0.537,-3.171 -0.562,-1.407 -1.464,-2.624 -3.41,-3.768 -1.943,-1.126 -5.02,-2.079 -9.607,-2.371 -0.934,-0.06 -1.891,-0.09 -2.864,-0.09 -6.874,-0.012 -14.5,1.527 -20.086,3.947 -2.793,1.196 -5.063,2.621 -6.455,3.977 -0.701,0.675 -1.178,1.32 -1.458,1.872 -0.282,0.558 -0.381,1.003 -0.384,1.448 0.003,0.432 0.094,0.905 0.413,1.544 0.472,0.948 1.528,2.244 3.447,3.683 1.912,1.442 4.654,3.016 8.317,4.614 l -0.052,0.12 c 6.593,-2.756 13.827,-4.283 21.42,-4.284 l 9.417,0 c 0.992,-2.23 1.863,-5.064 1.839,-7.521 M -125.774,5.62 c -8.803,8.809 -14.237,20.942 -14.239,34.378 l 0,58.556 -5.844,-5.406 c -0.002,-10e-4 -0.542,-0.501 -1.518,-1.392 -3.412,-3.118 -12.088,-10.965 -20.753,-18.19 -4.329,-3.61 -8.661,-7.067 -12.281,-9.67 -1.807,-1.301 -3.44,-2.387 -4.757,-3.156 -0.703,-0.419 -1.323,-0.727 -1.793,-0.935 -0.016,0.036 -0.028,0.049 -0.045,0.089 -0.286,0.66 -0.592,1.786 -0.794,3.218 -0.205,1.434 -0.32,3.178 -0.32,5.138 -0.005,6.411 1.231,15.084 3.939,23.711 2.7,8.637 6.88,17.237 12.54,23.693 9.776,11.181 22.933,29.895 33.777,47.907 5.417,9.005 10.242,17.815 13.753,25.446 1.756,3.819 3.185,7.342 4.198,10.494 1.006,3.163 1.627,5.92 1.639,8.465 l 0,6.773 0,20.348 c 0.002,7.645 3.089,14.534 8.098,19.548 5.013,5.008 11.903,8.095 19.548,8.097 7.645,-0.002 14.534,-3.089 19.548,-8.097 5.008,-5.014 8.095,-11.903 8.097,-19.548 l 0,-10.012 c -0.108,-0.055 -0.245,-0.076 -0.347,-0.138 l -26.788,-16.05 c -2.113,-1.267 -2.113,-3.321 0,-4.587 l 26.788,-16.051 c 2.114,-1.266 5.541,-1.266 7.655,0 l 26.788,16.051 c 2.114,1.266 2.114,3.32 0,4.587 l -26.788,16.05 c -0.102,0.062 -0.238,0.083 -0.347,0.138 l 0,10.012 c 0.002,7.645 3.089,14.534 8.098,19.548 5.013,5.008 11.903,8.095 19.548,8.097 7.645,-0.002 14.534,-3.089 19.548,-8.097 5.008,-5.013 8.094,-11.902 8.097,-19.546 0,-10.513 0,-25.14 0,-37.872 0.002,-23.507 -2.673,-46.229 -9.845,-66.349 -0.431,-1.21 -0.881,-2.409 -1.345,-3.599 l -12.919,25.071 -45.207,-23.295 c -27.828,-4.98 -48.954,-29.287 -48.956,-58.549 l 0,-70.496 c -2.42,1.674 -4.695,3.545 -6.773,5.62 m 24.716,285.157 c 10.647,10.641 25.317,17.212 41.558,17.214 16.24,-0.002 30.911,-6.573 41.557,-17.214 9.034,-9.039 15.117,-20.984 16.755,-34.322 -6.336,8.05 -16.145,13.237 -27.186,13.239 -13.713,-0.002 -25.524,-7.995 -31.126,-19.558 -5.602,11.563 -17.414,19.556 -31.126,19.558 -11.041,-0.002 -20.85,-5.189 -27.187,-13.239 1.638,13.338 7.721,25.283 16.755,34.322 m 42.659,-243.808 -30.14,58.492 c -0.423,0.821 -0.616,1.674 -0.617,2.526 0.005,2.012 1.09,3.943 2.999,4.924 l 18.375,9.468 14.208,7.321 25.737,13.263 12.344,-23.956 c -0.899,-1.887 -1.843,-3.748 -2.838,-5.577 -1.145,-2.103 -2.36,-4.162 -3.638,-6.184 -0.329,-0.52 -0.654,-1.042 -0.993,-1.557 l -1.226,2.38 -42.687,-21.996 3.189,-6.188 35.133,18.104 c -5.325,-6.681 -11.556,-12.807 -18.858,-18.262 -1.6,-1.199 -3.293,-2.707 -4.718,-4.375 -0.711,-0.84 -1.357,-1.716 -1.884,-2.695 -0.513,-0.982 -0.967,-2.078 -0.984,-3.518 -0.003,-0.739 0.153,-1.579 0.542,-2.358 0.578,-1.189 1.635,-2.062 2.672,-2.529 1.052,-0.483 2.126,-0.687 3.298,-0.776 2.656,-0.192 5.679,-0.324 8.985,-0.324 3.2,0 6.677,0.136 10.328,0.448 L -53.944,50.835 c -1.836,-0.947 -3.322,-2.296 -4.455,-3.866 m 68.826,85.534 c 5.281,-12.234 10.234,-24.016 10.531,-40.466 -2.671,-2.6 -5.461,-4.9 -8.337,-6.938 -0.687,-0.487 -1.37,-0.987 -2.066,-1.444 C 9.574,83.011 8.583,82.404 7.587,81.817 4.947,80.26 2.26,78.896 -0.452,77.709 -1.2,77.381 -1.95,77.079 -2.702,76.777 -3.833,76.323 -4.964,75.888 -6.099,75.489 -6.458,75.363 -6.817,75.247 -7.177,75.126 -7.85,74.9 -8.523,74.654 -9.195,74.446 c -1.181,-0.366 -2.359,-0.691 -3.535,-1.001 -9.638,-2.547 -19.016,-3.333 -26.77,-3.332 -2.801,0 -5.375,0.104 -7.686,0.255 0.947,1.23 2.546,2.757 3.939,3.78 10.646,7.94 19.199,17.256 25.999,27.569 1.367,2.073 2.657,4.19 3.884,6.341 0.622,1.09 1.226,2.19 1.813,3.299 0.67,1.265 1.317,2.542 1.942,3.83 0.641,1.321 1.26,2.654 1.856,3.998 1.355,3.061 2.609,6.174 3.737,9.347 1.421,3.989 2.617,8.084 3.709,12.227 1.081,4.103 2.06,8.252 2.846,12.481 2.143,-7.478 5.056,-14.185 7.888,-20.737 m 17.547,-92.505 0,50.595 c 0.013,18.687 -5.724,32.106 -11.156,44.671 -5.452,12.622 -10.575,24.374 -10.586,40.91 l 0,21.053 0,17.512 0,0 0,20.348 0,5.287 0,8.846 c -0.002,36.304 -29.428,65.73 -65.732,65.733 -36.305,-0.003 -65.731,-29.429 -65.733,-65.733 l 0,-14.133 0,-20.348 0,-6.773 c 0.012,-1.311 -0.41,-3.577 -1.306,-6.337 -1.556,-4.858 -4.464,-11.303 -8.201,-18.418 -5.605,-10.685 -13.071,-22.937 -20.673,-34.259 -7.598,-11.32 -15.357,-21.737 -21.465,-28.714 -6.53,-7.477 -11.021,-16.887 -13.944,-26.196 -2.914,-9.319 -4.252,-18.528 -4.258,-25.792 0.01,-3.888 0.363,-7.199 1.234,-9.91 0.45,-1.357 1.018,-2.598 1.992,-3.714 0.489,-0.551 1.1,-1.068 1.852,-1.45 0.748,-0.383 1.638,-0.604 2.508,-0.6 0.432,-10e-4 0.857,0.05 1.26,0.14 0.916,0.208 1.726,0.537 2.586,0.945 1.598,0.768 3.344,1.847 5.298,3.176 6.787,4.634 16.005,12.381 23.632,19.031 2.902,2.532 5.56,4.897 7.743,6.859 l 0,-42.729 c 0.002,-20.06 10.63,-37.631 26.559,-47.404 -2.946,-1.598 -5.3,-3.241 -7.126,-4.985 -1.365,-1.311 -2.444,-2.692 -3.199,-4.183 -0.754,-1.484 -1.165,-3.093 -1.162,-4.684 -0.003,-1.643 0.432,-3.223 1.145,-4.612 1.259,-2.441 3.266,-4.356 5.647,-5.994 3.585,-2.441 8.126,-4.283 13.078,-5.583 4.952,-1.292 10.307,-2.015 15.475,-2.017 1.115,0 2.22,0.034 3.312,0.105 3.548,0.229 6.556,0.801 9.122,1.697 3.838,1.329 6.719,3.477 8.51,6.139 1.801,2.657 2.441,5.653 2.436,8.421 -0.017,2.711 -0.577,5.263 -1.338,7.521 l 30.031,0 c -0.761,-2.259 -1.321,-4.81 -1.338,-7.521 0,-1.852 0.277,-3.785 1.002,-5.672 1.072,-2.836 3.239,-5.481 6.43,-7.298 3.193,-1.834 7.32,-2.941 12.636,-3.287 1.091,-0.071 2.197,-0.105 3.311,-0.105 7.877,0.012 16.182,1.66 22.841,4.515 3.329,1.441 6.259,3.175 8.536,5.363 1.135,1.098 2.11,2.321 2.823,3.716 0.713,1.389 1.147,2.969 1.145,4.612 0.003,1.591 -0.408,3.2 -1.162,4.684 -1.138,2.237 -2.978,4.222 -5.473,6.105 -1.39,1.045 -3.017,2.061 -4.857,3.06 15.933,9.772 26.564,27.345 26.565,47.407"
             inkscape:connector-curvature="0" /></g><g
           transform="translate(1048.6857,1458.8276)"
           id="g104"><path
             id="path106"
             style="fill:#000000;fill-opacity:1;fill-rule:nonzero;stroke:none"
             d="m 0,0 c -4.595,0 -8.32,-5.115 -8.32,-11.425 0,-6.31 3.725,-11.425 8.32,-11.425 4.595,0 8.32,5.115 8.32,11.425 C 8.32,-5.115 4.595,0 0,0"
             inkscape:connector-curvature="0" /></g><g
           transform="translate(999.4193,1435.9779)"
           id="g108"><path
             id="path110"
             style="fill:#000000;fill-opacity:1;fill-rule:nonzero;stroke:none"
             d="M 0,0 C 4.595,0 8.32,5.115 8.32,11.425 8.32,17.735 4.595,22.85 0,22.85 -4.595,22.85 -8.32,17.735 -8.32,11.425 -8.32,5.115 -4.595,0 0,0"
             inkscape:connector-curvature="0" /></g><g
           transform="translate(1056.5016,1329.8344)"
           id="g112"><path
             id="path114"
             style="fill:#000000;fill-opacity:1;fill-rule:nonzero;stroke:none"
             d="m 0,0 -1.594,3.094 -1.595,3.094 -5.138,-2.647 -37.548,-19.349 3.189,-6.188 41.259,21.261 z"
             inkscape:connector-curvature="0" /></g><g
           transform="translate(642.0558,1132.7975)"
           id="g116" /><g
           transform="translate(681.2668,1154.5331)"
           id="g120" /><g
           transform="translate(734.5912,1132.7975)"
           id="g124" /><g
           transform="translate(790.5059,1138.4005)"
           id="g128" /><g
           transform="translate(835.1125,1156.5557)"
           id="g132" /><g
           transform="translate(858.66,1156.5557)"
           id="g136" /><g
           transform="translate(953.4751,1154.5331)"
           id="g142" /><g
           transform="translate(1042.5863,1120.2963)"
           id="g146" /><g
           transform="translate(1074.3281,1151.109)"
           id="g150" /><g
           transform="translate(1125.885,1151.109)"
           id="g154" /><g
           transform="translate(1163.6978,1150.071)"
           id="g158" /><g
           transform="translate(1235.1218,1151.109)"
           id="g162" /><g
           transform="translate(1263.2854,1138.4514)"
           id="g166" /><g
           transform="translate(1314.2213,1138.4514)"
           id="g170" /><g
           transform="translate(1385.2307,1125.8472)"
           id="g174" /></g></g></g></svg>